<svg width="24" height="24" fill="none" xmlns="http://www.w3.org/2000/svg"><g clip-path="url(#clip0_1_10492)"><path d="M17.108 4.863a4.235 4.235 0 00-.4 1.522H5.286A1.674 1.674 0 003.61 8.059v.36l8.826 5.295 5.993-3.595a4.24 4.24 0 001.705.751l-7.307 4.385a.76.76 0 01-.7.042l-.082-.043-8.435-5.06v7.908c0 .589.477 1.065 1.065 1.065h15.522a1.065 1.065 0 001.065-1.065V10.94a4.238 4.238 0 001.522-.4v7.562a2.587 2.587 0 01-2.587 2.587H4.676a2.587 2.587 0 01-2.587-2.587v-9.2a.763.763 0 010-.101v-.742a3.195 3.195 0 013.196-3.196h11.823zm3.85-1.217a3.043 3.043 0 110 6.086 3.043 3.043 0 010-6.086z" fill="#1F1F1F"/></g><defs><clipPath id="clip0_1_10492"><path fill="#fff" d="M0 0h24v24H0z"/></clipPath></defs></svg>