<svg width="24" height="24" fill="none" xmlns="http://www.w3.org/2000/svg"><path d="M7.813 1C6.27 1 5 2.242 5 3.75v16.5C5 21.758 6.27 23 7.813 23h9.375C18.73 23 20 21.758 20 20.25V3.75C20 2.242 18.73 1 17.187 1H7.813zm0 1.833h9.375c.52 0 .937.408.937.917v16.5a.924.924 0 01-.938.917H7.813a.924.924 0 01-.937-.917V3.75c0-.509.417-.917.938-.917zM12.5 18.417a.948.948 0 00-.663.268.906.906 0 00-.274.648c0 .243.098.477.274.649a.948.948 0 001.326 0 .907.907 0 00.274-.649.906.906 0 00-.274-.648.948.948 0 00-.663-.268z" fill="#1F1F1F"/></svg>