<svg width="20" height="17" fill="none" xmlns="http://www.w3.org/2000/svg"><g clip-path="url(#clip0_99_1789)"><path d="M19.361 2.705c-.8-2.124-3.233-1.801-5.5-1.794-3.132.01-7.5-.865-10.295.636C1.647 2.577.888 4.817.436 6.514c-.583 2.194-.617 4.567.116 6.737.5 1.482 2.159 3.427 4.271 3.121 1.358.217 2.722.24 4.12.183 1.774-.071 3.854-.097 5.536-.575a.364.364 0 00.126-.067 25.403 25.403 0 001.545-.205c2.492-.416 2.968-2.319 3.263-4.08.498-2.975 1.048-6.003-.052-8.923zM2.038 5.323a.24.24 0 00-.004.091c-.058.24-.116.48-.167.72-.009.015-.02.027-.025.044-.15.456-.285.912-.409 1.37l-.011.005c.117-.615.257-1.163.39-1.591.068-.215.148-.446.238-.681-.003.015-.01.028-.012.042zm2.071 8.084c-.042-.064-.08-.129-.125-.191.074.022.146.046.216.073.157.156.306.316.45.48a5.692 5.692 0 01-.54-.362zM6.435 3.81a5.34 5.34 0 01-.078-.19l.503-.165a6.26 6.26 0 01-.425.355zm.535 1.293c.177-.168.342-.34.5-.517l.123-.072c-.158.19-.305.387-.449.587l-.174.002zm1.951 5.323c.01-.203.027-.406.026-.611a.21.21 0 00-.074-.16c.071-.003.145-.002.214-.007a5.913 5.913 0 00-.166.778zm5.2-1.771c-.407.015-.484.396-.241.561-.243.618-.212 1.275-.25 1.94a24.51 24.51 0 00.046 3.078 176.2 176.2 0 00-3.679.274c.086-.515-.06-1.143-.07-1.583-.024-1.024-.085-2.075.106-3.09.026-.139-.002-.267-.108-.365.287-.168.248-.51-.122-.627-.646-.206-1.535-.132-2.293-.102-.15-.6-.146-1.276.012-1.873.548-.026 1.095-.064 1.642-.097.302-.018.42-.226.365-.4.01-.014.022-.027.03-.042.178-.375.203-.764.347-1.149.26-.696.998-1.27 1.694-1.695 1.317-.804 3-1.054 4.6-.844.07.614.188 1.22.287 1.83-.2-.011-.404-.005-.585-.002-.595.009-1.186.088-1.78.104-.273.007-.511.18-.507.407.007.348.11.703.158 1.051-.175.208-.063.56.348.57.468.012.935.02 1.402.01.24-.006.542-.01.823-.05-.084.314-.077.656-.092.973-.016.342-.016.69.003 1.038-.169.007-.338.017-.505.023l-1.63.06zm2.215 1.338c-.016-.13-.024-.258-.044-.389-.015-.103-.103-.185-.209-.232.086.005.172.01.257.012l.013.094c.012.074.061.13.128.167-.05.116-.1.232-.145.348zm1.8 1.878c-.124.737-.33 1.302-.65 1.738.238-.601.46-1.203.662-1.807l-.012.069z" fill="#fff"/></g><defs><clipPath id="clip0_99_1789"><path fill="#fff" transform="translate(0 .566)" d="M0 0h20v16.113H0z"/></clipPath></defs></svg>