<svg width="26" height="24" fill="none" xmlns="http://www.w3.org/2000/svg"><path d="M21.5 4c-4-1.6-7.667 2.666-9 5-.5-1.667-1.6-5.3-2-6.5C10 1 5-.5 2 1.5s-.5 5.5 0 9 6.5 12 7 12.5c.4.4 1.5.167 2 0 1.6-2 10-9.167 14-12.5.5-1.5.5-4.9-3.5-6.5z" fill="#F40000"/><path d="M22.543 14.43c-3.88 3.19-8.235 5.444-11.297 9.258-.215.243-.56.277-.905.173-.216.174-.604.208-.905-.034-3.536-3.225-5.648-6.97-7.157-10.958C1.07 9.68-1.43 4.72 1.07 1.704 2.71-.308 6.03-.412 8.66.733c2.931 1.283 4.052 3.64 4.613 6.033 1.164-1.734 2.889-3.225 5.605-3.537 3.147-.347 5.907 1.353 6.812 3.676 1.078 2.843-.82 5.583-3.148 7.525zm1.12-7.733c-1.336-2.15-4.613-2.6-6.855-1.283-1.768 1.005-2.543 2.635-3.233 4.196-.26.624-1.596.45-1.682-.208-.388-2.775-.862-6.485-4.743-7.733-1.422-.624-2.5-.312-3.362.867-1.768.52-2.415 1.456-1.898 2.878.087 1.248.518 2.496.863 3.71 1.423 4.855 3.492 9.501 7.157 13.662 2.716-3.606 6.51-5.79 10.347-8.6 2.501-1.802 5.174-4.646 3.406-7.49z" fill="#F40000"/></svg>