<svg width="61" height="70" fill="none" xmlns="http://www.w3.org/2000/svg"><path d="M52.712 41.64c-9 9.2-19.1 15.7-26.2 26.7-.5.7-1.3.8-2.1.5-.5.5-1.4.6-2.1-.1-8.2-9.3-13.1-20.1-16.6-31.6-2.8-9.2-8.6-23.5-2.8-32.2 3.8-5.8 11.5-6.1 17.6-2.8 6.8 3.7 9.4 10.5 10.7 17.4 2.7-5 6.7-9.3 13-10.2 7.3-1 13.7 3.9 15.8 10.6 2.5 8.2-1.9 16.1-7.3 21.7zm2.6-22.3c-3.1-6.2-10.7-7.5-15.9-3.7-4.1 2.9-5.9 7.6-7.5 12.1-.6 1.8-3.7 1.3-3.9-.6-.9-8-2-18.7-11-22.3-3.3-1.8-5.8-.9-7.8 2.5-4.1 1.5-5.6 4.2-4.4 8.3.2 3.6 1.2 7.2 2 10.7 3.3 14 8.1 27.4 16.6 39.4 6.3-10.4 15.1-16.7 24-24.8 5.8-5.2 12-13.4 7.9-21.6z" fill="#1F1F1F"/></svg>