<svg width="20" height="17" fill="none" xmlns="http://www.w3.org/2000/svg"><g clip-path="url(#clip0_99_1792)" fill="#fff"><path d="M11.464 7.968c-.278-.466-1.173-1.009-1.748-.625-.83.003-1.317.777-1.27 1.423.07.995 1.422 1.39 2.467 1.046.938-.309.929-1.212.551-1.844zm-1.27 1.623a1.72 1.72 0 00.396-.096c.014.01.03.018.045.027a1.591 1.591 0 01-.44.07zm3.993-3.739a3.664 3.664 0 00-.019-.481c-.009-.098-.095-.18-.223-.18-.249 0-1.05-.079-1.322.106-.076-.068-.24-.044-.25.074-.038.46-.063.92-.067 1.38-.001.072.064.15.155.165.115.018.236.033.356.041a.142.142 0 00.03.03c.28.215.83.051 1.156.01a.197.197 0 00.152-.123c.1-.328.124-.69.032-1.022z"/><path d="M14.454 8.285c-.015-.102-.113-.159-.213-.17.128-.109.01-.338-.22-.294a2.825 2.825 0 01-.978.011c-.12-.019-.204.044-.227.117a.143.143 0 00-.039.154c.516 1.588-.539 2.88-2.624 2.911-1.958.03-3.21-1.174-2.812-2.706.013-.053.005-.124-.053-.16l-.017-.013c.041-.059.044-.136-.028-.2-.006-.006-.014-.01-.021-.015a.267.267 0 00.03-.095c.009-.07-.077-.128-.157-.128a.594.594 0 00-.224.048.275.275 0 00-.062-.014c-.424-.045-.814.053-1.237.08-.113.006-.209.07-.208.167.004.511.006 1.022.012 1.533a.124.124 0 00.029.083c.019.732.294 1.502.673 1.986.788 1.005 2.66.925 3.95.983 1.101.05 3.46.293 4.127-.66.68-.967.456-2.562.299-3.618zm-1.212 2.861l-.01-.008c.058-.169.108-.339.149-.51l.032-.07-.016.094c-.054.164-.106.33-.155.494zm-.435.984c.102-.043.2-.095.29-.16l.029.008a.257.257 0 00.065.009.196.196 0 00.05.04 2.527 2.527 0 01-.464.137.146.146 0 00.03-.034zM6.944 8.22c-.03.086-.054.171-.074.255a2.58 2.58 0 00-.024-.163.15.15 0 00.05-.136c.022.004.044.01.064.016-.006.01-.012.018-.016.028zm3.106 3.986l.448-.024c0 .013.001.026.004.039a17.166 17.166 0 00-.452-.015z"/><path d="M17.08 3.14c-1.077-1.092-2.538-1.928-4.194-2.337-1.697-.42-3.638-.227-5.314.162-3.335.774-5.89 2.917-6.788 5.603a6.207 6.207 0 00-.247 3.008c0 .004-.002.008-.001.012.022.219.072.425.139.624.337 1.242 1.049 2.42 2.07 3.473 1.763 1.819 4.8 3.355 7.74 2.798-.002.116.112.233.287.186 3.513-.938 6.747-2.554 8.158-5.433 1.348-2.748.374-5.841-1.85-8.096zM.936 9.45a5.524 5.524 0 01-.055-.621l.01.062c.015.193.041.385.072.575L.936 9.45zm.998-.971a7.088 7.088 0 01-.034.092 5.429 5.429 0 01-.007-.182l.043-.121c-.002.07-.003.14-.002.21zm7.719 6.79l-.436-.069c.146.01.292.023.438.035-.002.011-.002.023-.002.035zm5.767-.968a5.06 5.06 0 00.246-.086c-.068.044-.134.09-.203.132a.208.208 0 00-.043-.046zM10.453 3.56c.085.003.17.007.254.013v.001c-.187.007-.372.018-.557.033l.303-.047zm-7.209 8.542l-.13-.355c.074.14.152.28.232.42l-.102-.065zm.463-6.98l-.1.055a.23.23 0 00-.044-.024c.074-.054.147-.11.22-.166-.028.044-.052.09-.076.135zm.442 5.879l.004-.18c.006.009.01.018.017.026l.01.01c.017.098.04.195.065.292l-.096-.148zm1.178 1.213c-.987-.828-.806-2.294-.724-3.338.083-1.048.29-2.138.085-3.185.023-.051.054-.098.084-.145a4.12 4.12 0 00.406-.422c.89-.632 2.55-.653 3.609-.682 1.51-.04 3.13-.16 4.616.087 1.802.3 2.143 1.608 2.122 2.912-.021 1.35.06 2.762-.398 4.073-.584 1.67-2.767 1.619-4.56 1.6a41.738 41.738 0 01-2.806-.146c-.91-.072-1.777-.201-2.434-.754zm2.799 3.89c.406.046.814.086 1.223.12a8.568 8.568 0 01-1.223-.12z"/></g><defs><clipPath id="clip0_99_1792"><path fill="#fff" transform="translate(0 .566)" d="M0 0h20v16.113H0z"/></clipPath></defs></svg>