<svg width="97" height="22" fill="none" xmlns="http://www.w3.org/2000/svg"><path d="M.018 18.368C.694 13.282 1.623 7.785 5.51 3.93 8.807.648 13.794-1.075 18.358.73c5.155 2.052 7.268 7.138 9.973 11.404 1.606 2.543 4.648 6.153 8.283 5.415 2.45-.575 3.465-3.036 4.225-5.087 1.353-3.363 2.198-7.137 5.071-9.68C49.122-.008 53.686.32 57.067 2.7c4.563 3.117 5.831 8.45 9.634 12.223 2.705 2.626 6.001 2.38 8.621-.328 2.113-2.297 2.705-5.332 4.31-7.958 2.62-4.266 7.86-5.25 12.256-2.625 5.155 3.2 5.747 9.599 4.648 14.85-.422 2.132-4.057 1.64-3.972-.493 0-2.461.253-5.086-.592-7.465-1.099-3.036-4.986-5.497-7.69-2.708-1.522 1.559-1.945 4.02-2.959 5.907-1.014 1.969-2.535 3.774-4.31 5.168-7.691 5.661-14.2-1.312-17.918-7.465-2.028-3.364-7.268-9.845-10.903-4.43-1.944 2.79-2.366 6.399-3.972 9.352-3.972 7.466-12.509 6.4-17.664.575-3.296-3.692-4.902-10.748-10.142-12.47C8.3 2.288 5.596 13.118 4.92 18.368c-.592 2.79-5.24 2.871-4.902 0z" fill="#FDA3C4"/></svg>